<svg width="128" height="128" viewBox="0 0 128 128" fill="none" xmlns="http://www.w3.org/2000/svg">
<g clip-path="url(#clip0_1_5)">
<path d="M64 0C80.9736 0 97.2528 6.74286 109.255 18.7451C121.257 30.7475 128 47.0262 128 64L127.998 64.3977C127.894 81.228 121.163 97.3464 109.255 109.255C97.2528 121.257 80.9736 128 64 128C47.0262 128 30.7475 121.257 18.7451 109.255C6.74286 97.2528 0 80.9736 0 64C0 47.0262 6.74286 30.7475 18.7451 18.7451C30.7475 6.74286 47.0262 0 64 0Z" fill="#00140D"/>
<path d="M89.7344 27.2344H61.8788L57.887 43.2416H45.8582L40.8002 63.5471C40.643 64.175 40.6306 64.8304 40.7642 65.4638C40.8978 66.0971 41.1738 66.6918 41.5713 67.2025C41.9688 67.7134 42.4774 68.1271 43.0585 68.4122C43.6396 68.6974 44.2779 68.8465 44.9252 68.8484H55.1081L45.555 107.204L78.0226 72.8536C80.5912 70.1346 78.6723 65.6496 74.9405 65.6496H59.413L64.1946 46.4404H90.3944L93.8528 32.5391C94.0112 31.9113 94.024 31.2558 93.8904 30.6222C93.7576 29.9886 93.4816 29.3938 93.0848 28.8825C92.6872 28.3714 92.1792 27.9573 91.5984 27.6718C91.0168 27.3862 90.3824 27.2366 89.7344 27.2344Z" fill="#D74231"/>
</g>
<defs>
<clipPath id="clip0_1_5">
<rect width="128" height="128" fill="white"/>
</clipPath>
</defs>
</svg>
