<?xml version="1.0" encoding="UTF-8"?><svg id="Artwork" xmlns="http://www.w3.org/2000/svg" viewBox="0 0 1024 1024"><defs><style>.cls-1{fill:#231f20;}.cls-2{fill:#f6f6ea;}</style></defs><circle class="cls-2" cx="512" cy="512" r="512"/><path class="cls-1" d="M780.35,340.93c-71.76-45.02-167.06-69.81-268.35-69.81s-196.59,24.79-268.35,69.81c-72.53,45.5-112.48,106.26-112.48,171.07s39.95,125.57,112.48,171.07c71.76,45.02,167.06,69.81,268.35,69.81s196.59-24.79,268.35-69.81c72.53-45.5,112.48-106.26,112.48-171.07s-39.95-125.57-112.48-171.07ZM880.62,490.7c1.08,7.3-4.47,13.9-11.85,13.9h-81.92c-1.45-41.74-15.09-80.84-37.89-114.66h76.83c30.01,29.73,49.39,64.01,54.84,100.76ZM649.29,389.94h86.77c24.11,33.45,38.62,72.65,40.15,114.66h-108.86c-.79-40.9-8.08-80.08-21.16-114.58,1.01-.03,2.04-.06,3.1-.08ZM657.88,511.92c0,42.98-7.44,83.2-20.38,117.65-8.9-.8-15.13-2.29-18.65-4.48-5.57-3.45-8.35-11.74-8.35-24.87v-180.29c0-13.35,2.5-21.7,7.51-25.04,3.12-2.08,9.14-3.51,18.08-4.29,13.81,35.25,21.79,76.81,21.79,121.33ZM647.67,629.89c12.56-34.68,19.4-73.85,19.74-114.66h108.9c-.66,41.84-14.21,81.02-37.33,114.66h-91.32ZM641.42,296.28c65.11,15.16,118.35,41.41,159.75,75.04,3.3,2.68,1.45,8-2.8,8h-56.96c-25.4-33.57-60.13-61.28-100.94-80.24-1.62-.75-.78-3.19.95-2.79ZM575.66,288.51c62.42,13.49,116.14,46.36,152.26,90.8h-86.02c-5.57-13.06-12-25.37-19.25-36.74-14.04-22.03-30.35-39.32-48.14-51.37-1.37-.93-.46-3.04,1.15-2.69ZM631.61,379.86h-96.24v10.02c20.03,0,32.55,1.67,37.56,5.01,5.01,3.34,7.51,11.69,7.51,25.04v83.47h-136.89v-83.47c0-13.13,2.78-21.42,8.35-24.87,5.56-3.45,17.8-5.18,36.73-5.18v-10.02h-96.24c26.37-59.63,70.11-98.63,119.61-98.63s93.24,39,119.61,98.63ZM374.26,389.94c1.21.03,2.4.06,3.54.1-13.07,34.5-20.36,73.67-21.15,114.56h-108.86c1.53-42.01,16.04-81.21,40.15-114.66h86.31ZM356.59,515.23c.34,40.81,7.18,79.98,19.74,114.66h-91.32c-23.12-33.64-36.66-72.82-37.33-114.66h108.91ZM366.13,511.92c0-44.47,7.96-85.99,21.75-121.22,8.17.83,13.94,2.27,17.29,4.35,5.56,3.45,8.35,11.74,8.35,24.87v180.29c0,13.36-2.5,21.7-7.51,25.04-3.27,2.18-9.77,3.64-19.46,4.4-12.96-34.47-20.41-74.72-20.41-117.74ZM449.49,291.2c-17.79,12.05-34.1,29.34-48.14,51.37-7.25,11.37-13.68,23.68-19.25,36.74h-86.02c36.12-44.45,89.84-77.31,152.26-90.8,1.61-.35,2.51,1.77,1.15,2.69ZM215.47,371.29c42.33-33.62,102.02-59.86,167.12-75.02,1.74-.4,2.57,2.04.95,2.79-40.81,18.97-75.54,46.67-100.94,80.24h-64.34c-4.26,0-6.13-5.37-2.79-8.02ZM143.39,490.7c5.44-36.75,24.83-71.03,54.84-100.76h76.83c-22.8,33.83-36.44,72.92-37.89,114.66h-81.92c-7.38,0-12.94-6.59-11.85-13.9ZM194.16,629.88c-28.95-30.08-47.21-64.58-51.41-101.46-.8-7.05,4.84-13.19,11.94-13.19h82.39c.63,41.59,13.33,80.67,35.2,114.66h-64.98s-13.14-.01-13.14-.01ZM382.58,727.72c-67.8-15.79-126.24-43.61-168.56-79.25-3.22-2.71-1.35-7.95,2.86-7.95h62.68c25.63,35.44,61.5,64.67,103.98,84.41,1.61.75.77,3.19-.96,2.79ZM447.51,735.31c-64-14.03-118.8-48.43-154.74-94.79h87.64c5.95,14.61,12.92,28.35,20.93,40.91,13.86,21.74,29.92,38.86,47.44,50.89,1.5,1.03.51,3.38-1.27,2.99ZM390.78,640.28h97.85v-10.02c-11.58,0-20.09-.22-25.54-.67-5.46-.44-9.8-1.94-13.02-4.51-3.23-2.56-5.12-5.45-5.67-8.68-.56-3.23-.84-8.62-.84-16.19v-86.81h136.89v86.81c0,13.14-2.79,21.43-8.35,24.87-5.57,3.46-17.81,5.18-36.73,5.18v10.02h97.85c-26.18,61.71-70.7,102.34-121.22,102.34s-95.04-40.62-121.22-102.34ZM575.21,732.32c17.52-12.03,33.58-29.15,47.44-50.89,8.01-12.57,14.98-26.3,20.93-40.91h87.64c-35.95,46.36-90.74,80.77-154.74,94.79-1.78.39-2.78-1.96-1.27-2.99ZM809.98,648.47c-42.32,35.65-100.75,63.46-168.56,79.25-1.73.4-2.57-2.04-.96-2.79,42.48-19.74,78.35-48.97,103.98-84.41h62.68c4.21,0,6.08,5.24,2.86,7.95ZM829.89,629.89h-78.17c21.87-33.99,34.57-73.07,35.2-114.66h82.39c7.1,0,12.74,6.14,11.94,13.19-4.2,36.88-22.42,71.39-51.37,101.47Z"/></svg>